<svg width="198" height="157" viewBox="0 0 198 157" fill="none" xmlns="http://www.w3.org/2000/svg">
<path d="M74.76 72.0897C75.2133 71.8231 75.8933 71.5697 76.8 71.3297C77.7333 71.0897 78.6667 70.9697 79.6 70.9697C80.9333 70.9697 82.1067 71.1697 83.12 71.5697C84.16 71.9431 84.8267 72.5431 85.12 73.3697C85.6 74.7564 86.12 76.3697 86.68 78.2097C87.24 80.0497 87.8 81.9564 88.36 83.9297C88.92 85.8764 89.4667 87.8097 90 89.7297C90.5333 91.6231 91 93.3031 91.4 94.7697C91.08 95.1431 90.6 95.4364 89.96 95.6497C89.32 95.8897 88.56 96.0097 87.68 96.0097C87.04 96.0097 86.4933 95.9564 86.04 95.8497C85.6133 95.7431 85.2533 95.5831 84.96 95.3697C84.6933 95.1564 84.4667 94.8764 84.28 94.5297C84.12 94.1831 83.9733 93.7831 83.84 93.3297L83.12 90.5697H75.88C75.6667 91.3697 75.4533 92.1964 75.24 93.0497C75.0267 93.9031 74.8133 94.7297 74.6 95.5297C74.2267 95.6631 73.8267 95.7697 73.4 95.8497C73 95.9564 72.5067 96.0097 71.92 96.0097C70.56 96.0097 69.5467 95.7831 68.88 95.3297C68.24 94.8497 67.92 94.1964 67.92 93.3697C67.92 92.9964 67.9733 92.6231 68.08 92.2497C68.1867 91.8764 68.3067 91.4364 68.44 90.9297C68.6267 90.2097 68.88 89.3164 69.2 88.2497C69.5467 87.1831 69.92 86.0364 70.32 84.8097C70.72 83.5564 71.1467 82.2764 71.6 80.9697C72.0533 79.6631 72.48 78.4364 72.88 77.2897C73.28 76.1164 73.64 75.0764 73.96 74.1697C74.3067 73.2631 74.5733 72.5697 74.76 72.0897ZM79.56 77.2497C79.1867 78.3697 78.76 79.6231 78.28 81.0097C77.8267 82.3697 77.4133 83.7564 77.04 85.1697H82C81.6267 83.7297 81.24 82.3297 80.84 80.9697C80.4667 79.5831 80.12 78.3431 79.8 77.2497H79.56ZM101.478 90.6097C101.851 90.7164 102.331 90.7964 102.918 90.8497C103.505 90.8764 104.065 90.8897 104.598 90.8897C105.665 90.8897 106.545 90.6764 107.238 90.2497C107.958 89.7964 108.318 89.1031 108.318 88.1697C108.318 87.2897 108.025 86.6631 107.438 86.2897C106.851 85.9164 105.958 85.7297 104.758 85.7297H101.478V90.6097ZM101.478 80.8497H104.398C105.545 80.8497 106.371 80.6364 106.878 80.2097C107.411 79.7831 107.678 79.1564 107.678 78.3297C107.678 77.6097 107.371 77.0364 106.758 76.6097C106.171 76.1831 105.278 75.9697 104.078 75.9697C103.678 75.9697 103.211 75.9831 102.678 76.0097C102.171 76.0364 101.771 76.0764 101.478 76.1297V80.8497ZM104.078 96.2497C103.625 96.2497 103.091 96.2364 102.478 96.2097C101.865 96.1831 101.225 96.1297 100.558 96.0497C99.9181 95.9697 99.2781 95.8631 98.6381 95.7297C97.9981 95.6231 97.4115 95.4631 96.8781 95.2497C95.4115 94.6897 94.6781 93.7164 94.6781 92.3297V73.6497C94.6781 73.0897 94.8248 72.6631 95.1181 72.3697C95.4381 72.0497 95.8648 71.7964 96.3981 71.6097C97.3048 71.2897 98.4381 71.0631 99.7981 70.9297C101.158 70.7697 102.558 70.6897 103.998 70.6897C107.411 70.6897 110.038 71.2631 111.878 72.4097C113.718 73.5564 114.638 75.3297 114.638 77.7297C114.638 78.9297 114.291 79.9697 113.598 80.8497C112.905 81.7031 111.971 82.3297 110.798 82.7297C112.131 83.1031 113.238 83.7831 114.118 84.7697C115.025 85.7564 115.478 86.9964 115.478 88.4897C115.478 91.1297 114.491 93.0897 112.518 94.3697C110.571 95.6231 107.758 96.2497 104.078 96.2497ZM131.804 76.2497C129.75 76.2497 128.177 76.8764 127.084 78.1297C125.99 79.3831 125.444 81.1564 125.444 83.4497C125.444 85.7697 126.044 87.5564 127.244 88.8097C128.47 90.0631 130.11 90.6897 132.164 90.6897C133.257 90.6897 134.177 90.5431 134.924 90.2497C135.697 89.9564 136.43 89.6231 137.124 89.2497C137.577 89.6231 137.924 90.0764 138.164 90.6097C138.43 91.1164 138.564 91.7164 138.564 92.4097C138.564 93.5031 137.95 94.4364 136.724 95.2097C135.524 95.9564 133.684 96.3297 131.204 96.3297C129.417 96.3297 127.737 96.0764 126.164 95.5697C124.59 95.0631 123.217 94.2897 122.044 93.2497C120.87 92.1831 119.937 90.8497 119.244 89.2497C118.577 87.6231 118.244 85.6897 118.244 83.4497C118.244 81.3697 118.564 79.5431 119.204 77.9697C119.87 76.3697 120.764 75.0231 121.884 73.9297C123.03 72.8364 124.364 72.0097 125.884 71.4497C127.404 70.8897 129.03 70.6097 130.764 70.6097C133.217 70.6097 135.11 71.0097 136.444 71.8097C137.804 72.6097 138.484 73.6364 138.484 74.8897C138.484 75.5831 138.31 76.1831 137.964 76.6897C137.617 77.1964 137.217 77.5964 136.764 77.8897C136.07 77.4364 135.324 77.0497 134.524 76.7297C133.75 76.4097 132.844 76.2497 131.804 76.2497Z" fill="url(#paint0_diamond_14_385)"/>
<path d="M2.75323 0L46.0982 124.442L195.708 156.601H2.75323V0Z" fill="url(#paint1_radial_14_385)"/>
<path d="M195.708 156.601L153.566 33.8229L2.29192 6.93962e-05L198 2.91874L195.708 156.601Z" fill="url(#paint2_linear_14_385)"/>
<defs>
<radialGradient id="paint0_diamond_14_385" cx="0" cy="0" r="1" gradientUnits="userSpaceOnUse" gradientTransform="translate(129.92 91.3618) rotate(94.0283) scale(99.5197 165.866)">
<stop stop-color="#F69A2B"/>
<stop offset="0.437822" stop-color="#8344F6"/>
<stop offset="1" stop-color="#78C53D"/>
</radialGradient>
<radialGradient id="paint1_radial_14_385" cx="0" cy="0" r="1" gradientUnits="userSpaceOnUse" gradientTransform="translate(99.2306 78.3005) rotate(111.14) scale(224.866 277.067)">
<stop stop-color="#6317EF"/>
<stop offset="1" stop-color="#E9B012"/>
</radialGradient>
<linearGradient id="paint2_linear_14_385" x1="100.146" y1="1.45941" x2="156.907" y2="137.338" gradientUnits="userSpaceOnUse">
<stop stop-color="#C16A00"/>
<stop offset="1" stop-color="#78C53D"/>
</linearGradient>
</defs>
</svg>
