<svg width="5" height="19" viewBox="0 0 5 19" fill="none" xmlns="http://www.w3.org/2000/svg">
<path d="M0.925781 16.875C0.925781 16.3777 1.12377 15.9008 1.47619 15.5492C1.82862 15.1975 2.3066 15 2.805 15C3.30341 15 3.78139 15.1975 4.13382 15.5492C4.48624 15.9008 4.68423 16.3777 4.68423 16.875C4.68423 17.3723 4.48624 17.8492 4.13382 18.2008C3.78139 18.5525 3.30341 18.75 2.805 18.75C2.3066 18.75 1.82862 18.5525 1.47619 18.2008C1.12377 17.8492 0.925781 17.3723 0.925781 16.875ZM0.925781 9.375C0.925781 8.87772 1.12377 8.40081 1.47619 8.04918C1.82862 7.69754 2.3066 7.5 2.805 7.5C3.30341 7.5 3.78139 7.69754 4.13382 8.04918C4.48624 8.40081 4.68423 8.87772 4.68423 9.375C4.68423 9.87228 4.48624 10.3492 4.13382 10.7008C3.78139 11.0525 3.30341 11.25 2.805 11.25C2.3066 11.25 1.82862 11.0525 1.47619 10.7008C1.12377 10.3492 0.925781 9.87228 0.925781 9.375ZM0.925781 1.875C0.925781 1.37772 1.12377 0.900806 1.47619 0.549175C1.82862 0.197544 2.3066 0 2.805 0C3.30341 0 3.78139 0.197544 4.13382 0.549175C4.48624 0.900806 4.68423 1.37772 4.68423 1.875C4.68423 2.37228 4.48624 2.84919 4.13382 3.20083C3.78139 3.55246 3.30341 3.75 2.805 3.75C2.3066 3.75 1.82862 3.55246 1.47619 3.20083C1.12377 2.84919 0.925781 2.37228 0.925781 1.875Z" fill="#ACB1B4"/>
</svg>
