<svg width="54" height="54" viewBox="0 0 54 54" fill="none" xmlns="http://www.w3.org/2000/svg">
<path d="M16.3332 13.6216C15.6259 13.6216 14.9477 13.9025 14.4476 14.4026C13.9475 14.9027 13.6665 15.581 13.6665 16.2882C13.6665 16.9955 13.9475 17.6738 14.4476 18.1739C14.9477 18.674 15.6259 18.9549 16.3332 18.9549H37.6665C38.3737 18.9549 39.052 18.674 39.5521 18.1739C40.0522 17.6738 40.3332 16.9955 40.3332 16.2882C40.3332 15.581 40.0522 14.9027 39.5521 14.4026C39.052 13.9025 38.3737 13.6216 37.6665 13.6216H16.3332ZM13.6665 27.0002C13.6665 26.293 13.9475 25.6147 14.4476 25.1146C14.9477 24.6145 15.6259 24.3336 16.3332 24.3336H37.6665C38.3737 24.3336 39.052 24.6145 39.5521 25.1146C40.0522 25.6147 40.3332 26.293 40.3332 27.0002C40.3332 27.7075 40.0522 28.3858 39.5521 28.8859C39.052 29.386 38.3737 29.6669 37.6665 29.6669H16.3332C15.6259 29.6669 14.9477 29.386 14.4476 28.8859C13.9475 28.3858 13.6665 27.7075 13.6665 27.0002ZM16.3332 35.0456C15.6259 35.0456 14.9477 35.3265 14.4476 35.8266C13.9475 36.3267 13.6665 37.005 13.6665 37.7122C13.6665 38.4195 13.9475 39.0978 14.4476 39.5979C14.9477 40.098 15.6259 40.3789 16.3332 40.3789H37.6665C38.3737 40.3789 39.052 40.098 39.5521 39.5979C40.0522 39.0978 40.3332 38.4195 40.3332 37.7122C40.3332 37.005 40.0522 36.3267 39.5521 35.8266C39.052 35.3265 38.3737 35.0456 37.6665 35.0456H16.3332Z" fill="#F69A2B"/>
<path fill-rule="evenodd" clip-rule="evenodd" d="M53.6666 27.0002C53.6666 41.7282 41.7279 53.6668 26.9999 53.6668C12.2719 53.6668 0.333252 41.7282 0.333252 27.0002C0.333252 12.2722 12.2719 0.333496 26.9999 0.333496C41.7279 0.333496 53.6666 12.2722 53.6666 27.0002ZM48.3333 27.0002C48.3333 32.6581 46.0856 38.0843 42.0849 42.0851C38.0841 46.0859 32.6579 48.3335 26.9999 48.3335C21.342 48.3335 15.9158 46.0859 11.915 42.0851C7.9142 38.0843 5.66659 32.6581 5.66659 27.0002C5.66659 21.3422 7.9142 15.916 11.915 11.9152C15.9158 7.91444 21.342 5.66683 26.9999 5.66683C32.6579 5.66683 38.0841 7.91444 42.0849 11.9152C46.0856 15.916 48.3333 21.3422 48.3333 27.0002Z" fill="#F69A2B"/>
</svg>
