<svg width="24" height="24" viewBox="0 0 24 24" fill="none" xmlns="http://www.w3.org/2000/svg">
<path d="M21.707 20.293L19.684 18.27C21.1841 16.5261 22.006 14.3003 21.999 12C21.999 7.909 19.527 4.547 16 3V5C18.387 6.386 19.999 9.047 19.999 12C19.9956 13.7767 19.4081 15.503 18.327 16.913L17.042 15.628C17.644 14.536 18 13.19 18 12C18 10.229 17.225 8.1 16 7V14.586L14 12.586V4C13.9999 3.81911 13.9508 3.64164 13.8578 3.48649C13.7648 3.33133 13.6315 3.2043 13.472 3.11892C13.3125 3.03354 13.1329 2.99302 12.9522 3.00166C12.7715 3.0103 12.5966 3.06779 12.446 3.168L7.727 6.313L3.707 2.293L2.293 3.707L20.293 21.707L21.707 20.293ZM12 5.868V10.586L9.169 7.755L12 5.868ZM4 17H6.697L12.445 20.832C12.5956 20.9325 12.7707 20.9903 12.9516 20.9991C13.1325 21.0079 13.3123 20.9674 13.472 20.882C13.6316 20.7965 13.765 20.6694 13.858 20.514C13.951 20.3587 14.0001 20.181 14 20V18.121L12 16.121V18.132L7.555 15.168C7.53 15.151 7.499 15.148 7.473 15.135C7.35476 15.0711 7.22484 15.0316 7.091 15.019C7.059 15.016 7.032 15 7 15H4V9H4.879L3.102 7.223C2.77225 7.38869 2.49477 7.64239 2.30028 7.95602C2.10579 8.26964 2.00186 8.63097 2 9V15C2 16.103 2.897 17 4 17Z" fill="black"/>
</svg>
