<svg width="30" height="31" viewBox="0 0 30 31" fill="none" xmlns="http://www.w3.org/2000/svg">
<path d="M2.5 8C2.5 5.6425 2.5 4.465 3.2325 3.7325C3.965 3 5.1425 3 7.5 3C9.8575 3 11.035 3 11.7675 3.7325C12.5 4.465 12.5 5.6425 12.5 8V23C12.5 25.3575 12.5 26.535 11.7675 27.2675C11.035 28 9.8575 28 7.5 28C5.1425 28 3.965 28 3.2325 27.2675C2.5 26.535 2.5 25.3575 2.5 23V8Z" stroke="white" stroke-width="1.5"/>
<path opacity="0.5" d="M17.5 8C17.5 5.6425 17.5 4.465 18.2325 3.7325C18.965 3 20.1425 3 22.5 3C24.8575 3 26.035 3 26.7675 3.7325C27.5 4.465 27.5 5.6425 27.5 8V23C27.5 25.3575 27.5 26.535 26.7675 27.2675C26.035 28 24.8575 28 22.5 28C20.1425 28 18.965 28 18.2325 27.2675C17.5 26.535 17.5 25.3575 17.5 23V8Z" stroke="white" stroke-width="1.5"/>
</svg>
