<svg width="30" height="31" viewBox="0 0 30 31" fill="none" xmlns="http://www.w3.org/2000/svg">
<path d="M15 20.5C17.0888 20.5 18.75 18.8363 18.75 16.75C18.75 14.6637 17.0888 13 15 13C12.9112 13 11.25 14.6637 11.25 16.75C11.25 18.8363 12.9112 20.5 15 20.5Z" fill="white"/>
<path d="M26.0212 14.4825C25.728 13.0425 25.1523 11.675 24.3275 10.4588C23.5195 9.26055 22.4882 8.22925 21.29 7.42125C20.0722 6.59934 18.7052 6.02393 17.2662 5.7275C16.5102 5.57392 15.7403 5.49852 14.9688 5.5025V3L10 6.75L14.9688 10.5V8.0025C15.5738 8 16.1787 8.0575 16.7625 8.1775C17.8809 8.40797 18.9434 8.85513 19.89 9.49375C20.8231 10.1227 21.6261 10.9257 22.255 11.8587C23.2315 13.3029 23.7522 15.0067 23.75 16.75C23.7509 17.92 23.5171 19.0782 23.0625 20.1563C22.8427 20.6761 22.5731 21.1734 22.2575 21.6413C21.9426 22.1076 21.5834 22.5426 21.185 22.94C19.9749 24.1476 18.4388 24.976 16.765 25.3237C15.601 25.5598 14.4015 25.5598 13.2375 25.3237C12.1186 25.093 11.0557 24.6455 10.1087 24.0063C9.17682 23.3778 8.3747 22.5757 7.74625 21.6438C6.77097 20.1981 6.24994 18.4939 6.25 16.75H3.75C3.74981 18.9923 4.41972 21.1836 5.67375 23.0425C6.48365 24.2376 7.51365 25.2676 8.70875 26.0775C10.5658 27.3343 12.7576 28.0041 15 28C15.7616 28.0007 16.5214 27.9241 17.2675 27.7712C18.706 27.4747 20.0726 26.8993 21.29 26.0775C21.8873 25.6739 22.4445 25.2139 22.9538 24.7038C23.4644 24.1941 23.9249 23.6366 24.3287 23.0388C25.5847 21.1823 26.254 18.9914 26.25 16.75C26.2507 15.9884 26.1741 15.2286 26.0212 14.4825Z" fill="url(#paint0_linear_8_123)"/>
<defs>
<linearGradient id="paint0_linear_8_123" x1="15" y1="3" x2="71" y2="42" gradientUnits="userSpaceOnUse">
<stop stop-color="white"/>
<stop offset="1" stop-color="#EDE9E9" stop-opacity="0"/>
</linearGradient>
</defs>
</svg>
