<svg width="24" height="24" viewBox="0 0 24 24" fill="none" xmlns="http://www.w3.org/2000/svg">
<path d="M11.3445 3.1035C11.54 3.19328 11.7056 3.33722 11.8218 3.51827C11.938 3.69932 11.9998 3.90989 12 4.125V19.875C11.9995 20.0899 11.9376 20.3002 11.8214 20.4811C11.7053 20.662 11.5399 20.8058 11.3446 20.8957C11.1494 20.9856 10.9325 21.0178 10.7196 20.9884C10.5067 20.959 10.3066 20.8694 10.143 20.73L5.208 16.5H2.625C1.92881 16.5 1.26113 16.2234 0.768845 15.7312C0.276562 15.2389 0 14.5712 0 13.875L0 10.125C0 8.67601 1.176 7.50001 2.625 7.50001H5.2095L10.143 3.27C10.3064 3.13036 10.5065 3.04046 10.7194 3.01095C10.9323 2.98145 11.1493 3.01356 11.3445 3.1035ZM9.75 6.57001L6.357 9.4785C6.15323 9.65348 5.89359 9.74979 5.625 9.75001H2.625C2.52554 9.75001 2.43016 9.78951 2.35984 9.85984C2.28951 9.93017 2.25 10.0255 2.25 10.125V13.875C2.25 14.082 2.418 14.25 2.625 14.25H5.625C5.8935 14.25 6.153 14.346 6.357 14.52L9.75 17.43V6.57001ZM18.894 3.513C19.1049 3.30233 19.3909 3.18399 19.689 3.18399C19.9871 3.18399 20.2731 3.30233 20.484 3.513C21.5984 4.62732 22.4823 5.95021 23.0854 7.40616C23.6885 8.86211 23.9989 10.4226 23.9989 11.9985C23.9989 13.5744 23.6885 15.1349 23.0854 16.5909C22.4823 18.0468 21.5984 19.3697 20.484 20.484C20.2708 20.683 19.9886 20.7914 19.697 20.7863C19.4055 20.7813 19.1272 20.6632 18.921 20.457C18.7148 20.2508 18.5967 19.9725 18.5917 19.681C18.5866 19.3894 18.695 19.1072 18.894 18.894C19.7995 17.9886 20.5178 16.9137 21.0079 15.7307C21.4979 14.5477 21.7502 13.2798 21.7502 11.9993C21.7502 10.7188 21.4979 9.4508 21.0079 8.26779C20.5178 7.08478 19.7995 6.00989 18.894 5.10451C18.6833 4.89357 18.565 4.60763 18.565 4.3095C18.565 4.01138 18.6833 3.72394 18.894 3.513ZM17.304 6.6945L17.3025 6.69601C18.7085 8.10246 19.4984 10.0098 19.4984 11.9985C19.4984 13.9872 18.7085 15.8945 17.3025 17.301C17.165 17.4491 16.9901 17.5574 16.7962 17.6144C16.6023 17.6714 16.3967 17.6751 16.2009 17.625C16.0051 17.5749 15.8264 17.473 15.6837 17.3299C15.541 17.1868 15.4396 17.0079 15.39 16.812C15.34 16.6164 15.3436 16.411 15.4004 16.2173C15.4571 16.0236 15.5649 15.8487 15.7125 15.711C16.2001 15.2235 16.5868 14.6447 16.8507 14.0077C17.1146 13.3707 17.2504 12.688 17.2504 11.9985C17.2504 11.309 17.1146 10.6263 16.8507 9.98929C16.5868 9.3523 16.2001 8.77352 15.7125 8.28601C15.5015 8.07496 15.3829 7.78872 15.3829 7.49026C15.3829 7.19179 15.5015 6.90555 15.7125 6.6945C15.9235 6.48346 16.2098 6.36489 16.5082 6.36489C16.8067 6.36489 17.093 6.48346 17.304 6.6945Z" fill="black"/>
</svg>
