<svg width="51" height="50" viewBox="0 0 51 50" fill="none" xmlns="http://www.w3.org/2000/svg">
<path d="M6.98315 25C7.43874 20.8751 9.25515 17.0195 12.1456 14.0417L15.329 17.224L16.8029 15.751L13.6769 12.626C16.7597 10.0731 20.5812 8.57817 24.5779 8.36146V13.5417H26.6613V8.36146C30.6582 8.57744 34.4799 10.0725 37.5623 12.626L34.5623 15.625L36.0363 17.0979L39.0936 14.0406C41.9843 17.0187 43.8007 20.8748 44.2561 25H39.8738V27.0833H44.3696C44.3743 31.4282 42.8615 35.6383 40.0925 38.9865L36.53 35.424L35.0561 36.8969L38.679 40.5187L38.6654 40.5312L40.1144 42.0281C42.1219 40.0894 43.7179 37.7657 44.807 35.1962C45.8961 32.6266 46.4559 29.8638 46.4529 27.0729C46.4529 15.5729 37.1248 6.25 25.6196 6.25C14.1144 6.25 4.78627 15.5719 4.78627 27.0729C4.77966 32.5621 6.94835 37.8303 10.8175 41.724L12.2967 40.2583L12.2769 40.2375L15.4081 37.1073L13.9352 35.6344L10.8946 38.674C8.28378 35.3751 6.86528 31.2903 6.8696 27.0833H11.0915V25H6.98315Z" fill="#0DB2FF"/>
</svg>
