<svg width="31" height="30" viewBox="0 0 31 30" fill="none" xmlns="http://www.w3.org/2000/svg">
<path d="M17.9417 1.89603L15.8263 13.0106L23.4899 13.0364L13.0583 28.1038L15.1738 15.876L7.51066 15.8493L17.9417 1.89603ZM17.9432 0.0210547C17.8925 0.0210547 17.8419 0.0229004 17.7922 0.0266211C17.4613 0.0533691 17.2419 0.163994 16.9818 0.338838C16.8353 0.436495 16.7032 0.554202 16.5894 0.688525C16.5553 0.728848 16.523 0.77077 16.4928 0.81415L5.98675 14.7187C5.57191 15.2873 5.51097 16.0378 5.82972 16.665C6.148 17.2921 6.79159 17.6896 7.49706 17.6948L12.9092 17.7342L11.2077 27.7593C11.046 28.6209 11.5053 29.4797 12.3139 29.8256C12.5489 29.9266 12.802 29.9786 13.0578 29.9784C13.647 29.9784 14.1313 29.7028 14.4946 29.205L25.0138 14.1374C25.4286 13.5688 25.4891 12.8174 25.1708 12.1912C24.8525 11.564 24.2089 11.1664 23.5035 11.1613L18.0913 11.1519L19.7746 2.33709C19.8102 2.19277 19.8282 2.04465 19.828 1.896C19.828 0.881621 19.0203 0.0547461 18.0097 0.0219336C17.9872 0.0209961 17.9652 0.0209961 17.9432 0.0209961L17.9432 0.0210547Z" fill="white"/>
</svg>
