<svg width="50" height="50" viewBox="0 0 50 50" fill="none" xmlns="http://www.w3.org/2000/svg">
<path d="M29.0696 3.16021L25.5438 21.6845L38.3165 21.7274L20.9306 46.8399L24.4563 26.4602L11.6845 26.4157L29.0696 3.16021ZM29.072 0.0352539C28.9876 0.0352539 28.9033 0.0383301 28.8205 0.0445313C28.2689 0.0891113 27.9032 0.273486 27.4697 0.564893C27.2255 0.727654 27.0054 0.923834 26.8158 1.14771C26.7588 1.21491 26.7051 1.28478 26.6548 1.35708L9.14462 24.5313C8.45322 25.479 8.35165 26.7298 8.8829 27.7751C9.41337 28.8204 10.486 29.4829 11.6618 29.4915L20.6821 29.5571L17.8462 46.2657C17.5767 47.7017 18.3423 49.1329 19.6899 49.7095C20.0816 49.8778 20.5034 49.9644 20.9297 49.9642C21.9118 49.9642 22.7188 49.5048 23.3243 48.6751L40.8563 23.5626C41.5477 22.6148 41.6486 21.3625 41.1181 20.3188C40.5876 19.2734 39.5149 18.6109 38.3392 18.6023L29.3188 18.5867L32.1243 3.89531C32.1837 3.65479 32.2137 3.40792 32.2134 3.16016C32.2134 1.46953 30.8673 0.0914063 29.1829 0.0367188C29.1455 0.0351563 29.1087 0.0351562 29.072 0.0351562L29.072 0.0352539Z" fill="#78C53D"/>
</svg>
